# xmcd
#
# Track frame offsets:
#	150
#	18950
#	31821
#	46497
#	64487
#	81277
#	99035
#	114080
#	133627
#	151690
#	170227
#	187550
#	207612
#	225362
#	243124
#	264253
#	286053
#	302666
#	315888
#
# Disc length: 4427 seconds
#
# Revision: 1
# Processed by: cddbd v1.5.2PL0 Copyright (c) Steve Scherf et al.
# Submitted via: audiograbber 1.83.01
#
DISCID=e0114913
DTITLE=JonesTM - HC200732
DYEAR=2007
DGENRE=Country
TTITLE0=Suzy Bogguss - In Heaven
TTITLE1=Cowboy Crush - Miss Dificult
TTITLE2=Van Zant - Goes Down Easy [Radio Edit]
TTITLE3=Little Big Town - I'm With The Band [Single Edit]
TTITLE4=Big and Rich - Between Raising Hell And Amazing Grace
TTITLE5=George Strait - How 'Bout Them Cowgirls [Album Version]
TTITLE6=Keith, Brent - Looking For A Road (Theme From Dale) [Radio Edit]
TTITLE7=Mario - Crying Out For Me [Radio Edit]
TTITLE8=Fantasia - Only One U [Album Version]
TTITLE9=Najee - Romance The Night [Album Version]
TTITLE10=Ne-Yo - Can We Chill [Radio Edit]
TTITLE11=Jimmy Sommers Feat. Paul Brown - Happy Hour [Album Version]
TTITLE12=Tom Braxton - Peg	[Radio Edit - No Vocals]
TTITLE13=Tom Braxton - Peg [Radio Edit]
TTITLE14=Danny Lerman - Gotcha! [Album Version]
TTITLE15=Najee - Come What May [Album Version]
TTITLE16=Chaka Adams - Angel [Radio Edit]
TTITLE17=Paul McCartney - Dance Tonight
TTITLE18=Greg Adams - Five To Eleven
EXTD=
EXTT0=
EXTT1=
EXTT2=
EXTT3=
EXTT4=
EXTT5=
EXTT6=
EXTT7=
EXTT8=
EXTT9=
EXTT10=
EXTT11=
EXTT12=
EXTT13=
EXTT14=
EXTT15=
EXTT16=
EXTT17=
EXTT18=
PLAYORDER=
